<?xml version="1.0" encoding="utf-8"?>
<!-- Generator: Adobe Illustrator 26.1.0, SVG Export Plug-In . SVG Version: 6.00 Build 0)  -->
<svg version="1.1" id="Layer_1" xmlns="http://www.w3.org/2000/svg" xmlns:xlink="http://www.w3.org/1999/xlink" x="0px" y="0px"
	 viewBox="0 0 500 600" style="enable-background:new 0 0 500 600;" xml:space="preserve">
<style type="text/css">
	.st0{fill:#231F20;}
	.st1{fill:#B63225;}
	.st2{fill:#FFFFFF;stroke:#020202;stroke-width:2.2165;stroke-miterlimit:10;}
	.st3{fill:#E5E3E3;stroke:#020202;stroke-width:2.2165;stroke-miterlimit:10;}
	.st4{fill:#623212;stroke:#020202;stroke-width:2.2165;stroke-miterlimit:10;}
	.st5{fill:#E5E3E3;}
	.st6{fill:#020202;}
	.st7{fill:#2A2B2A;}
	.st8{fill:#C1BDBB;stroke:#020202;stroke-width:2.2165;stroke-miterlimit:10;}
</style>
<g>
	<g>
		<path class="st0" d="M144.29,441.51l-10.73,28.63l-5.36-1.32l1.16-5.89c-2.16-1.36-4.34-2.41-6.55-3.14
			c-2.2-0.73-4.2-1.27-5.98-1.62c-2.08-0.4-4.11-0.63-6.09-0.68c-2.06,0-4.16,0.1-6.31,0.3c-2.15,0.2-4.23,0.54-6.23,1.02
			c-2,0.48-3.89,1.12-5.67,1.92c-1.77,0.8-3.32,1.79-4.65,2.96c-1.32,1.18-2.37,2.57-3.14,4.19c-0.77,1.61-1.16,3.46-1.16,5.55
			c0,2.62,0.53,4.99,1.6,7.13c1.07,2.14,2.62,3.96,4.67,5.49c2.04,1.52,4.57,2.7,7.57,3.52c3,0.83,6.43,1.24,10.27,1.24
			c2.64-0.05,5.32-0.31,8.05-0.76c1.15-0.19,2.38-0.43,3.68-0.72c1.31-0.29,2.63-0.66,3.97-1.1c1.33-0.44,2.68-0.95,4.02-1.54
			c1.35-0.59,2.65-1.27,3.9-2.04l4.13,12.65c-0.64,0.64-1.53,1.2-2.66,1.68c-1.14,0.48-2.4,0.9-3.81,1.26
			c-1.4,0.36-2.89,0.66-4.46,0.9c-1.58,0.24-3.14,0.44-4.69,0.6c-3.63,0.37-7.55,0.59-11.77,0.64c-5.55,0-10.32-0.78-14.29-2.34
			c-3.98-1.56-7.24-3.67-9.79-6.33c-2.55-2.66-4.42-5.73-5.63-9.23c-1.2-3.5-1.8-7.18-1.8-11.05c0-3.55,0.52-6.77,1.54-9.67
			c1.03-2.9,2.43-5.48,4.2-7.77c1.77-2.28,3.84-4.26,6.19-5.93c2.35-1.67,4.84-3.04,7.47-4.1c2.63-1.07,5.32-1.85,8.09-2.34
			c2.76-0.49,5.44-0.7,8.03-0.62c1.98,0.11,4.08,0.33,6.33,0.68c1.92,0.29,4.1,0.73,6.55,1.32c2.44,0.59,4.96,1.39,7.55,2.4
			l1.64-7.93L144.29,441.51z"/>
		<path class="st0" d="M163.55,503.74c-3.71,0-6.91-0.56-9.59-1.68c-2.68-1.12-4.89-2.64-6.61-4.57c-1.72-1.92-3-4.16-3.82-6.73
			c-0.83-2.56-1.24-5.29-1.24-8.17c0-3.87,0.67-7.26,2.02-10.17c1.35-2.91,3.18-5.33,5.48-7.27c2.31-1.94,4.99-3.38,8.03-4.35
			s6.26-1.44,9.65-1.44c3.79,0,6.99,0.56,9.59,1.68c2.6,1.12,4.7,2.62,6.31,4.51c1.6,1.88,2.76,4.04,3.47,6.49
			c0.71,2.44,1.06,5,1.06,7.67c0,3.63-0.58,6.93-1.74,9.89c-1.16,2.96-2.8,5.49-4.92,7.59c-2.12,2.1-4.69,3.71-7.69,4.84
			C170.54,503.18,167.21,503.74,163.55,503.74z M165.27,464.82c-1.41,0-2.65,0.3-3.7,0.9c-1.05,0.6-1.96,1.39-2.72,2.36
			c-0.76,0.98-1.39,2.08-1.9,3.3c-0.51,1.23-0.91,2.48-1.2,3.74c-0.29,1.27-0.5,2.5-0.62,3.7c-0.12,1.2-0.18,2.24-0.18,3.12
			c0,0.96,0.06,2.04,0.2,3.22c0.13,1.19,0.36,2.38,0.68,3.58c0.32,1.2,0.75,2.38,1.28,3.52c0.53,1.15,1.2,2.16,2,3.04
			c0.8,0.88,1.74,1.59,2.82,2.12c1.08,0.53,2.33,0.8,3.74,0.8c1.44,0,2.68-0.27,3.7-0.8c1.03-0.53,1.89-1.24,2.6-2.12
			c0.71-0.88,1.27-1.88,1.7-3c0.43-1.12,0.75-2.26,0.98-3.42c0.23-1.16,0.38-2.29,0.46-3.38c0.08-1.09,0.12-2.07,0.12-2.92
			c0-1.15-0.06-2.39-0.18-3.72c-0.12-1.33-0.32-2.66-0.6-3.98c-0.28-1.32-0.67-2.59-1.16-3.8c-0.5-1.22-1.11-2.28-1.84-3.2
			c-0.74-0.92-1.62-1.66-2.64-2.22C167.79,465.1,166.61,464.82,165.27,464.82z"/>
		<path class="st0" d="M230.55,467.18l-15.18,0.84c-0.05,0.53-0.08,1.08-0.08,1.64s0,1.12,0,1.68v22.91l10.33-0.4l-1.32,8.61
			l-29.83-0.84l-0.52-6.49l8.97-0.32l-0.76-25.51v-0.64l-11.49,0.56v-8.45l11.73,0.52c0.29-2.88,0.88-5.46,1.76-7.73
			c0.88-2.27,2.19-4.18,3.92-5.73c1.74-1.55,3.97-2.73,6.69-3.54c2.72-0.81,6.06-1.22,10.01-1.22c0.94-0.03,1.91,0.01,2.93,0.12
			c0.85,0.11,1.79,0.28,2.82,0.52c1.03,0.24,2.01,0.6,2.94,1.08l-1.44,9.25c-0.69-1.01-1.51-1.77-2.44-2.28
			c-0.94-0.51-1.83-0.87-2.68-1.08c-1.02-0.27-2.04-0.4-3.09-0.4c-1.12,0.24-2.12,0.59-3,1.04c-0.88,0.45-1.66,1.11-2.32,1.98
			c-0.67,0.87-1.23,1.99-1.68,3.36c-0.45,1.37-0.8,3.1-1.04,5.19l14.78,0.56V467.18z"/>
		<path class="st0" d="M271.63,467.18l-15.18,0.84c-0.05,0.53-0.08,1.08-0.08,1.64s0,1.12,0,1.68v22.91l10.33-0.4l-1.32,8.61
			l-29.83-0.84l-0.52-6.49l8.97-0.32l-0.76-25.51v-0.64l-11.49,0.56v-8.45l11.73,0.52c0.29-2.88,0.88-5.46,1.76-7.73
			c0.88-2.27,2.19-4.18,3.92-5.73c1.74-1.55,3.97-2.73,6.69-3.54c2.72-0.81,6.06-1.22,10.01-1.22c0.94-0.03,1.91,0.01,2.92,0.12
			c0.85,0.11,1.79,0.28,2.82,0.52c1.03,0.24,2.01,0.6,2.94,1.08l-1.44,9.25c-0.69-1.01-1.51-1.77-2.44-2.28
			c-0.94-0.51-1.83-0.87-2.68-1.08c-1.02-0.27-2.04-0.4-3.08-0.4c-1.12,0.24-2.12,0.59-3,1.04c-0.88,0.45-1.66,1.11-2.32,1.98
			c-0.67,0.87-1.23,1.99-1.68,3.36c-0.45,1.37-0.8,3.1-1.04,5.19l14.78,0.56V467.18z"/>
		<path class="st0" d="M320.64,487.6c-1.02,2.64-2.42,4.93-4.23,6.87c-1.8,1.94-3.84,3.54-6.11,4.81c-2.27,1.27-4.67,2.21-7.21,2.82
			c-2.53,0.61-5.03,0.92-7.49,0.92c-3.42,0-6.46-0.53-9.13-1.6s-4.94-2.51-6.81-4.32c-1.87-1.81-3.33-3.94-4.39-6.39
			c-1.05-2.44-1.66-5.04-1.82-7.79c0-4.19,0.7-7.78,2.1-10.75c1.4-2.98,3.31-5.4,5.73-7.27c2.42-1.87,5.24-3.24,8.47-4.11
			c3.23-0.87,6.66-1.3,10.29-1.3c1.34,0,2.72,0.09,4.15,0.28c1.43,0.19,2.82,0.52,4.18,1c1.36,0.48,2.66,1.14,3.9,1.98
			c1.24,0.84,2.36,1.92,3.36,3.24c1,1.32,1.85,2.9,2.54,4.75c0.69,1.84,1.18,4.02,1.44,6.53l-32.88,5.89
			c0.21,1.84,0.6,3.64,1.14,5.41c0.55,1.76,1.29,3.32,2.22,4.66c0.94,1.35,2.09,2.42,3.47,3.2c1.37,0.79,3.01,1.16,4.9,1.1
			c2.06-0.24,3.87-0.85,5.45-1.84c0.67-0.43,1.31-0.95,1.92-1.58c0.61-0.63,1.15-1.38,1.6-2.26s0.79-1.91,1-3.08
			c0.21-1.17,0.25-2.52,0.12-4.04L320.64,487.6z M305.47,474.71c-0.11-1.25-0.33-2.35-0.68-3.28c-0.35-0.93-0.78-1.73-1.3-2.4
			c-0.52-0.67-1.1-1.22-1.72-1.66c-0.63-0.44-1.26-0.79-1.9-1.06c-1.5-0.61-3.18-0.89-5.05-0.84c-1.76,0.21-3.19,0.71-4.28,1.5
			c-1.1,0.79-1.94,1.76-2.54,2.92c-0.6,1.16-1.01,2.45-1.22,3.86c-0.21,1.42-0.32,2.86-0.32,4.32L305.47,474.71z"/>
		<path class="st0" d="M370.74,487.6c-1.02,2.64-2.42,4.93-4.23,6.87c-1.8,1.94-3.84,3.54-6.11,4.81c-2.27,1.27-4.67,2.21-7.21,2.82
			c-2.53,0.61-5.03,0.92-7.49,0.92c-3.42,0-6.46-0.53-9.13-1.6s-4.94-2.51-6.81-4.32c-1.87-1.81-3.33-3.94-4.39-6.39
			c-1.05-2.44-1.66-5.04-1.82-7.79c0-4.19,0.7-7.78,2.1-10.75c1.4-2.98,3.31-5.4,5.73-7.27c2.42-1.87,5.24-3.24,8.47-4.11
			c3.23-0.87,6.66-1.3,10.29-1.3c1.34,0,2.72,0.09,4.15,0.28c1.43,0.19,2.82,0.52,4.18,1c1.36,0.48,2.66,1.14,3.9,1.98
			c1.24,0.84,2.36,1.92,3.36,3.24c1,1.32,1.85,2.9,2.54,4.75c0.69,1.84,1.18,4.02,1.44,6.53l-32.88,5.89
			c0.21,1.84,0.6,3.64,1.14,5.41c0.55,1.76,1.29,3.32,2.22,4.66c0.94,1.35,2.09,2.42,3.47,3.2c1.37,0.79,3.01,1.16,4.9,1.1
			c2.06-0.24,3.87-0.85,5.45-1.84c0.67-0.43,1.31-0.95,1.92-1.58c0.61-0.63,1.15-1.38,1.6-2.26s0.79-1.91,1-3.08
			c0.21-1.17,0.25-2.52,0.12-4.04L370.74,487.6z M355.56,474.71c-0.11-1.25-0.33-2.35-0.68-3.28c-0.35-0.93-0.78-1.73-1.3-2.4
			c-0.52-0.67-1.1-1.22-1.72-1.66c-0.63-0.44-1.26-0.79-1.9-1.06c-1.5-0.61-3.18-0.89-5.05-0.84c-1.76,0.21-3.19,0.71-4.28,1.5
			c-1.1,0.79-1.94,1.76-2.54,2.92c-0.6,1.16-1.01,2.45-1.22,3.86c-0.21,1.42-0.32,2.86-0.32,4.32L355.56,474.71z"/>
	</g>
	<g>
		<path class="st0" d="M90.98,80.48l5.73,30.04l-5.27,1.66l-2.07-5.63c-2.55-0.04-4.97,0.2-7.23,0.72c-2.26,0.52-4.24,1.1-5.95,1.73
			c-1.99,0.74-3.84,1.6-5.55,2.59c-1.76,1.07-3.5,2.25-5.23,3.54c-1.73,1.29-3.33,2.66-4.79,4.11c-1.46,1.45-2.74,2.98-3.84,4.59
			c-1.1,1.61-1.91,3.26-2.43,4.95c-0.52,1.69-0.69,3.43-0.51,5.21c0.18,1.78,0.81,3.56,1.89,5.34c1.36,2.23,3.05,3.99,5.08,5.25
			c2.02,1.27,4.3,2.02,6.84,2.26c2.54,0.24,5.3-0.07,8.29-0.93c3-0.85,6.14-2.28,9.42-4.28c2.23-1.42,4.39-3.03,6.48-4.84
			c0.88-0.76,1.81-1.6,2.77-2.53c0.97-0.93,1.9-1.93,2.81-3c0.91-1.07,1.79-2.21,2.64-3.41c0.84-1.2,1.6-2.46,2.27-3.77l10.11,8.66
			c-0.21,0.88-0.68,1.82-1.4,2.82c-0.72,1-1.58,2.02-2.59,3.06c-1.01,1.04-2.13,2.07-3.34,3.09c-1.22,1.02-2.45,2.01-3.69,2.95
			c-2.9,2.21-6.14,4.43-9.72,6.67c-4.74,2.89-9.22,4.7-13.43,5.44c-4.21,0.74-8.09,0.63-11.65-0.31c-3.56-0.94-6.76-2.59-9.61-4.96
			c-2.85-2.36-5.27-5.19-7.29-8.5c-1.85-3.03-3.08-6.05-3.71-9.06c-0.63-3.01-0.78-5.95-0.45-8.82c0.33-2.87,1.06-5.63,2.2-8.28
			c1.14-2.65,2.55-5.11,4.24-7.39c1.69-2.28,3.59-4.35,5.69-6.21c2.1-1.86,4.28-3.43,6.53-4.71c1.74-0.94,3.66-1.84,5.76-2.71
			c1.79-0.75,3.89-1.51,6.28-2.28c2.39-0.77,4.96-1.39,7.7-1.88l-2.72-7.62L90.98,80.48z"/>
		<path class="st0" d="M164.99,114.9l0.32,7.68l-19.4,4.68c-0.07-0.4-0.14-0.84-0.21-1.32c-0.07-0.48-0.13-0.94-0.19-1.37
			c-0.05-0.49-0.1-0.98-0.17-1.46c-1.82,1.93-3.78,3.52-5.88,4.75c-2.1,1.23-4.23,2.2-6.39,2.9c-1.58,0.51-3.26,0.89-5.05,1.16
			c-1.79,0.27-3.51,0.28-5.14,0.03c-1.64-0.24-3.1-0.8-4.39-1.66c-1.29-0.86-2.21-2.17-2.77-3.93c-0.6-1.85-0.69-3.59-0.29-5.21
			c0.41-1.62,1.14-3.12,2.21-4.52c1.07-1.39,2.38-2.66,3.93-3.81c1.55-1.14,3.17-2.18,4.85-3.1c1.68-0.92,3.35-1.71,5.02-2.37
			c1.66-0.66,3.15-1.2,4.44-1.62c1.37-0.44,2.61-0.81,3.73-1.09c1.11-0.29,2.12-0.5,3.03-0.66c-0.29-1.95-0.71-3.77-1.24-5.45
			c-0.39-1.22-0.9-2.27-1.54-3.16c-0.64-0.89-1.45-1.54-2.44-1.95c-0.99-0.41-2.18-0.58-3.57-0.5c-1.39,0.08-3.03,0.47-4.91,1.16
			c-1.23,0.54-2.28,1.27-3.16,2.2c-0.38,0.4-0.74,0.87-1.09,1.4c-0.35,0.53-0.65,1.14-0.89,1.8c-0.25,0.67-0.42,1.42-0.52,2.25
			c-0.1,0.83-0.09,1.73,0.03,2.7l-12.12,4.57c-0.39-1.81-0.44-3.51-0.17-5.1c0.27-1.59,0.77-3.05,1.47-4.38
			c0.71-1.34,1.57-2.56,2.58-3.67c1.02-1.11,2.08-2.11,3.19-3c2.65-2.06,5.78-3.8,9.38-5.24c3.29-1.11,6.19-1.7,8.71-1.77
			c2.52-0.06,4.71,0.23,6.57,0.87c1.86,0.65,3.44,1.55,4.74,2.7c1.29,1.15,2.36,2.37,3.19,3.66c0.84,1.29,1.48,2.55,1.94,3.79
			s0.8,2.27,1.04,3.09c0.24,1.02,0.47,2.32,0.67,3.91c0.19,1.37,0.37,3.11,0.56,5.2c0.18,2.1,0.33,4.63,0.44,7.6L164.99,114.9z
			 M143.42,109.42c-0.6,0.14-1.25,0.3-1.94,0.5c-0.69,0.19-1.41,0.41-2.15,0.65c-0.63,0.2-1.41,0.48-2.32,0.83
			c-0.91,0.35-1.85,0.76-2.82,1.22c-0.97,0.47-1.93,0.99-2.86,1.57c-0.94,0.58-1.74,1.2-2.41,1.87c-0.67,0.66-1.16,1.37-1.48,2.12
			c-0.32,0.75-0.35,1.52-0.1,2.3c0.2,0.61,0.57,1.13,1.11,1.56c0.55,0.43,1.19,0.73,1.95,0.91c0.76,0.18,1.59,0.21,2.49,0.1
			c0.9-0.11,1.81-0.39,2.69-0.85c1.79-0.97,3.45-1.98,4.97-3.05c1.52-1.06,2.82-2.03,3.88-2.91c-0.14-1.13-0.3-2.27-0.47-3.42
			C143.79,111.67,143.61,110.54,143.42,109.42z"/>
		<path class="st0" d="M199.63,81.6l-14.96,2.7c0.01,0.54,0.05,1.08,0.12,1.64c0.07,0.56,0.14,1.11,0.21,1.67l2.82,22.73l10.2-1.67
			l-0.25,8.71l-29.71,2.84l-1.32-6.37l8.86-1.42l-3.9-25.22l-0.08-0.64l-11.33,1.97l-1.04-8.38l11.71-0.93
			c-0.06-2.9,0.2-5.53,0.8-7.89c0.59-2.36,1.66-4.42,3.19-6.17c1.53-1.75,3.6-3.2,6.2-4.34c2.6-1.15,5.86-1.96,9.78-2.45
			c0.92-0.14,1.89-0.22,2.92-0.24c0.86,0,1.81,0.06,2.87,0.17c1.05,0.11,2.06,0.35,3.06,0.71l-0.29,9.36
			c-0.81-0.92-1.71-1.58-2.7-1.96c-0.99-0.39-1.92-0.63-2.8-0.74c-1.04-0.14-2.08-0.15-3.11-0.02c-1.08,0.38-2.03,0.85-2.85,1.4
			c-0.82,0.56-1.51,1.31-2.06,2.25c-0.55,0.94-0.97,2.12-1.25,3.54c-0.28,1.42-0.41,3.18-0.39,5.27l14.73-1.27L199.63,81.6z"/>
		<path class="st0" d="M251.14,104.25c-1.16,2.58-2.7,4.78-4.61,6.61c-1.91,1.83-4.03,3.31-6.37,4.45c-2.34,1.14-4.79,1.94-7.36,2.4
			c-2.57,0.47-5.08,0.63-7.53,0.49c-3.41-0.2-6.42-0.91-9.02-2.12c-2.61-1.22-4.79-2.79-6.55-4.71c-1.76-1.92-3.1-4.13-4.01-6.63
			c-0.91-2.5-1.37-5.13-1.37-7.88c0.24-4.18,1.15-7.72,2.72-10.61c1.57-2.89,3.62-5.2,6.14-6.93c2.52-1.73,5.42-2.93,8.69-3.61
			c3.27-0.68,6.73-0.92,10.35-0.71c1.33,0.08,2.71,0.25,4.12,0.52c1.42,0.27,2.79,0.68,4.12,1.24c1.33,0.56,2.59,1.29,3.78,2.2
			c1.19,0.91,2.25,2.06,3.17,3.43c0.92,1.38,1.68,3.01,2.26,4.88c0.58,1.88,0.94,4.08,1.06,6.6l-33.16,3.99
			c0.11,1.85,0.38,3.67,0.83,5.46c0.45,1.79,1.1,3.39,1.95,4.78c0.85,1.4,1.95,2.53,3.27,3.4c1.33,0.86,2.94,1.33,4.84,1.38
			c2.06-0.12,3.91-0.63,5.54-1.52c0.69-0.39,1.36-0.88,2.01-1.47c0.65-0.59,1.23-1.31,1.73-2.17c0.5-0.85,0.89-1.86,1.17-3.02
			c0.28-1.16,0.4-2.5,0.35-4.03L251.14,104.25z M236.73,90.51c-0.04-1.26-0.2-2.36-0.49-3.32c-0.29-0.95-0.68-1.78-1.16-2.48
			c-0.48-0.69-1.02-1.28-1.62-1.76c-0.6-0.48-1.21-0.86-1.84-1.17c-1.46-0.7-3.13-1.07-4.99-1.13c-1.77,0.11-3.23,0.53-4.36,1.25
			c-1.14,0.72-2.04,1.65-2.71,2.77c-0.67,1.12-1.15,2.39-1.44,3.79c-0.29,1.4-0.48,2.83-0.57,4.3L236.73,90.51z"/>
		<path class="st1" d="M323.22,140.52c-2.32,0.38-5.32-0.01-8.17-1.04c-6.76-2.53-12.29-8.2-11.85-22.44l0.2-6.82l-10.26-3.71
			l-4.1,11.34l8.25,2.99l-3.52,9.72l-29.38-10.64l3.55-9.79l8.64,3.13l12.06-33.31L280,76.81l3.55-9.79l31.7,11.48
			c12.42,4.49,19.14,13.13,15.4,23.46c-2.74,7.56-8.94,10.98-16.82,10.57l0.32,4.65c0.53,8.91,4.29,11.06,6.37,11.81
			c1.62,0.59,2.73,0.64,3.82,0.77L323.22,140.52z M296.46,97.34l10.95,3.96c3.47,1.26,8.94,1.58,10.89-3.82
			c1.73-4.78-2.52-7.72-6.23-9.06l-10.95-3.96L296.46,97.34z"/>
		<path class="st1" d="M361.79,166.52c-1.68-0.12-4.69-0.91-7.71-2.88c-3.5-2.29-5.36-6.34-4.25-10.9
			c-6.71,1.29-12.43,0.6-17.31-2.58c-5.9-3.85-8.86-10.58-4.13-17.68c4.87-7.3,14.43-6.06,20.74-1.93c4.19,2.73,6.61,5.48,8.64,8.67
			l1.3-1.99c1.88-2.88-0.64-6.39-4.75-9.07c-3.16-2.06-8.18-3.97-13.83-5.21l3.04-9.17c6.97,1.32,13.39,3.64,17.99,6.64
			c10.71,6.99,12.28,15.84,7.13,23.74l-6.36,9.75c-0.99,1.51-0.48,2.53,0.42,3.11c0.76,0.49,1.39,0.71,1.9,0.85L361.79,166.52z
			 M341.17,143.66c1.86,1.21,6.16,2.56,12.26,2.22l0.09-0.14c-2.61-3.36-5.19-5.25-7.05-6.46c-2.86-1.77-6.05-2.58-7.44-0.45
			C337.91,140.55,339.17,142.36,341.17,143.66z"/>
		<path class="st1" d="M393.6,191.13c-6.56-0.17-13.1-2.61-17.82-7.17c-8.85-8.54-9.9-21.63-1.53-30.31
			c7.86-8.15,20.45-8.19,27.88-1.02c3.66,3.53,4.94,6.81,4.95,10.59l2.22-2.3l6.14,5.92l-9.8,10.15l-4-3.41
			c0.45-4.01-0.43-7.82-3.62-10.9c-4.25-4.1-10.17-4.34-14.27-0.09c-4.27,4.43-4.16,10.57-0.03,14.56c3.36,3.25,7.03,4.17,11.86,4.6
			L393.6,191.13z"/>
		<path class="st1" d="M419.92,227.02c-6.34-1.49-12.67-5.22-17.52-11.94c-6.72-9.31-7.71-22.46,2.73-29.99
			c10.37-7.49,23.45-3.38,30.46,6.33c6.29,8.71,6.78,17.66,0.53,22.17c-6.52,4.7-14.25,0.58-19.1-6.14
			c-3.12-4.32-4.54-8.25-5.34-12.44c-4.43,3.81-4.01,9.58-0.56,14.36c3.46,4.79,8.02,7.47,12.39,8.76L419.92,227.02z M418.02,192.58
			c1.13,3.53,2.54,5.76,3.78,7.49c2.71,3.61,5.23,4.72,7.03,3.43c1.4-1.01,1.29-3.26-0.44-5.65
			C425.99,194.51,421.91,192.5,418.02,192.58z"/>
		<path class="st1" d="M469,252.3l-16.34,7.64l-4.55-9.73l5.05-2.36c-0.83-1.97-4.65-4.52-10.39-6.36l-9.66,4.51l3.3,7.06
			l-8.84,4.13l-11.84-25.33l8.84-4.13l3.26,6.98l17.31-8.09l-3.26-6.98l8.84-4.13l8.54,18.28l-7.65,3.58
			c7.28,2.21,13.26,6.11,15.42,10.72L469,252.3z"/>
	</g>
	<g>
		<g>
			<path class="st2" d="M210.86,217.71c-4.35-14.44-16.89-29-34.83-38.4c-28.73-15.06-60.44-11.2-70.83,8.62
				c-10.39,19.82,4.48,48.1,33.2,63.16c8.96,4.7,18.2,7.55,27,8.66c15.56,19.04,40.24,35.13,70.2,43.61
				c58.97,16.69,116.01-2.38,127.39-42.59L210.86,217.71z M153.2,244.89c-19.97-10.47-30.3-30.13-23.08-43.9
				c7.22-13.78,29.27-16.46,49.24-5.99c9.6,5.03,16.97,12.19,21.23,19.8l-51.16-14.48c-4.29,15.14-1.48,31.12,6.82,46.06
				C155.23,245.91,154.21,245.42,153.2,244.89z"/>
			
				<ellipse transform="matrix(0.2723 -0.9622 0.9622 0.2723 -34.447 413.9189)" class="st3" cx="256.44" cy="229.73" rx="26.07" ry="110.98"/>
			<path class="st4" d="M341.88,267.46c-1.96,6.93-43.03,1.37-91.73-12.42c-48.7-13.78-86.6-30.57-84.64-37.5
				c1.96-6.93,84.78-3.77,133.49,10.01C347.7,241.34,343.84,260.53,341.88,267.46z"/>
			<polygon class="st5" points="195.11,204.36 175.32,209.37 170.32,189.58 186.88,189.12 			"/>
		</g>
		<g>
			<path class="st6" d="M247.97,288.15c1.95,0.95,3.82,1.98,5.64,3.08c1.98,0.76,3.96,1.59,5.9,2.54
				c36.09,17.57,51.11,61.07,33.54,97.16s-61.07,51.1-97.16,33.54c-1.95-0.95-3.82-1.98-5.64-3.08c-1.98-0.76-3.96-1.59-5.9-2.54
				c-36.09-17.57-51.11-61.07-33.54-97.16S211.88,270.58,247.97,288.15z"/>
			<circle class="st7" cx="227.06" cy="351.13" r="72.68"/>
			<circle class="st2" cx="227.06" cy="351.13" r="59.21"/>
			<circle class="st8" cx="226.26" cy="348.23" r="27.54"/>
		</g>
		<path class="st2" d="M299.09,358.32c-3.15-50.59-51.23-75.27-107.4-55.12c-22.97,8.24-43.74,22.71-60.04,40.39
			c-4-11.32-4.93-23.24-2.07-34.95c9.68-39.54,58.67-61.53,109.42-49.11c50.76,12.42,84.06,54.54,74.38,94.08
			c-2.64,10.79-8.22,20.26-15.95,28.09C298.97,373.86,299.57,366.01,299.09,358.32z"/>
	</g>
</g>
</svg>
